<svg width="329" height="114" viewBox="0 0 329 114" fill="none" xmlns="http://www.w3.org/2000/svg">
<circle opacity="0.6" cx="38.5" cy="38" r="37.5" fill="#5957E9"/>
<circle opacity="0.6" cx="75.5" cy="54" r="37.5" fill="#F87171"/>
<circle opacity="0.6" cx="37.5" cy="76" r="37.5" fill="#EC4899"/>
<path d="M163.728 72.5H150.294V34.6018H163.84C167.652 34.6018 170.933 35.3605 173.684 36.8779C176.435 38.383 178.551 40.5481 180.031 43.3732C181.524 46.1983 182.27 49.5785 182.27 53.5139C182.27 57.4616 181.524 60.8542 180.031 63.6916C178.551 66.5291 176.423 68.7065 173.647 70.2239C170.884 71.7413 167.578 72.5 163.728 72.5ZM158.307 65.6347H163.395C165.764 65.6347 167.756 65.2152 169.373 64.3763C171.001 63.5251 172.222 62.2112 173.036 60.4348C173.863 58.6459 174.276 56.339 174.276 53.5139C174.276 50.7135 173.863 48.425 173.036 46.6486C172.222 44.8721 171.007 43.5644 169.391 42.7255C167.775 41.8866 165.783 41.4672 163.414 41.4672H158.307V65.6347ZM188.206 72.5V34.6018H213.743V41.2081H196.219V50.2385H212.429V56.8448H196.219V65.8937H213.817V72.5H188.206ZM240.672 45.5012C240.524 44.0085 239.889 42.8489 238.766 42.0223C237.644 41.1958 236.12 40.7825 234.195 40.7825C232.888 40.7825 231.784 40.9675 230.883 41.3376C229.982 41.6954 229.292 42.195 228.81 42.8365C228.342 43.478 228.107 44.2059 228.107 45.0201C228.083 45.6986 228.224 46.2908 228.533 46.7966C228.854 47.3024 229.292 47.7403 229.847 48.1104C230.402 48.4682 231.043 48.7828 231.771 49.0542C232.499 49.3133 233.276 49.5353 234.103 49.7204L237.508 50.5346C239.161 50.9047 240.678 51.3982 242.06 52.015C243.442 52.6318 244.638 53.3905 245.65 54.2911C246.662 55.1917 247.445 56.2526 248 57.474C248.568 58.6953 248.858 60.0955 248.87 61.6746C248.858 63.9939 248.265 66.0048 247.093 67.7072C245.934 69.3973 244.256 70.7112 242.06 71.6488C239.876 72.574 237.243 73.0366 234.158 73.0366C231.099 73.0366 228.434 72.5679 226.164 71.6303C223.907 70.6927 222.143 69.3048 220.872 67.4666C219.614 65.6162 218.953 63.3277 218.892 60.6013H226.645C226.732 61.872 227.096 62.9329 227.737 63.7842C228.391 64.6231 229.261 65.2584 230.346 65.6902C231.444 66.1096 232.684 66.3193 234.066 66.3193C235.423 66.3193 236.601 66.122 237.6 65.7272C238.612 65.3324 239.395 64.7834 239.95 64.0802C240.506 63.377 240.783 62.569 240.783 61.6561C240.783 60.8049 240.53 60.0893 240.024 59.5095C239.531 58.9297 238.803 58.4362 237.841 58.0291C236.891 57.622 235.725 57.2519 234.343 56.9188L230.217 55.8825C227.022 55.1053 224.499 53.8902 222.648 52.2371C220.798 50.5839 219.879 48.3572 219.891 45.5568C219.879 43.2621 220.489 41.2574 221.723 39.5426C222.969 37.8279 224.678 36.4893 226.849 35.5271C229.02 34.5648 231.488 34.0837 234.251 34.0837C237.064 34.0837 239.519 34.5648 241.616 35.5271C243.725 36.4893 245.366 37.8279 246.538 39.5426C247.71 41.2574 248.315 43.2436 248.352 45.5012H240.672ZM279.389 46.8521C279.13 45.9515 278.766 45.1558 278.297 44.465C277.829 43.7618 277.255 43.1696 276.576 42.6885C275.91 42.195 275.145 41.8188 274.282 41.5597C273.431 41.3006 272.487 41.1711 271.451 41.1711C269.514 41.1711 267.811 41.6522 266.343 42.6145C264.887 43.5767 263.752 44.9769 262.938 46.8151C262.124 48.6409 261.717 50.8739 261.717 53.5139C261.717 56.1539 262.118 58.3992 262.92 60.2497C263.722 62.1002 264.857 63.5128 266.325 64.4873C267.793 65.4496 269.526 65.9307 271.525 65.9307C273.338 65.9307 274.886 65.61 276.169 64.9685C277.465 64.3146 278.452 63.3956 279.13 62.2112C279.821 61.0269 280.166 59.6267 280.166 58.0106L281.795 58.2512H272.024V52.2186H287.883V56.9928C287.883 60.3237 287.18 63.1858 285.773 65.5791C284.367 67.9601 282.43 69.7983 279.963 71.0936C277.496 72.3766 274.67 73.0181 271.488 73.0181C267.935 73.0181 264.813 72.2348 262.124 70.668C259.435 69.0889 257.337 66.8498 255.832 63.9507C254.34 61.0393 253.593 57.585 253.593 53.5879C253.593 50.5161 254.037 47.7774 254.926 45.3717C255.826 42.9537 257.085 40.9058 258.701 39.2281C260.317 37.5503 262.198 36.2734 264.345 35.3975C266.491 34.5216 268.817 34.0837 271.321 34.0837C273.468 34.0837 275.466 34.3983 277.317 35.0274C279.167 35.6443 280.808 36.5202 282.239 37.6551C283.682 38.7901 284.86 40.141 285.773 41.7077C286.686 43.2621 287.272 44.9769 287.531 46.8521H279.389ZM325.601 34.6018V72.5H318.68L302.192 48.6471H301.914V72.5H293.902V34.6018H300.934L317.292 58.4362H317.625V34.6018H325.601Z" fill="url(#paint0_linear_43_32)"/>
<defs>
<linearGradient id="paint0_linear_43_32" x1="159.72" y1="41.8065" x2="221.121" y2="141.262" gradientUnits="userSpaceOnUse">
<stop stop-color="#EC4899"/>
<stop offset="1" stop-color="#F87171"/>
</linearGradient>
</defs>
</svg>
